<svg width="167" height="167" viewBox="0 0 167 167" fill="none" xmlns="http://www.w3.org/2000/svg">
<rect x="0.613525" width="165.653" height="166.636" rx="25" fill="#2DFF68"/>
<path d="M66.9899 38.7427C63.4202 38.7427 59.9968 40.0265 57.4727 42.3116C54.9486 44.5968 53.5305 47.6962 53.5305 50.9279V106.438C53.5305 108.593 54.4759 110.659 56.1586 112.183C57.8414 113.706 60.1237 114.562 62.5034 114.562H98.395C100.775 114.562 103.057 113.706 104.74 112.183C106.423 110.659 107.368 108.593 107.368 106.438V98.315H111.854C115.424 98.315 118.847 97.0312 121.372 94.746C123.896 92.4608 125.314 89.3614 125.314 86.1297V67.1749C125.314 63.9432 123.896 60.8438 121.372 58.5586C118.847 56.2735 115.424 54.9897 111.854 54.9897H107.368V50.9279C107.368 47.6962 105.95 44.5968 103.426 42.3116C100.902 40.0265 97.4782 38.7427 93.9085 38.7427H66.9899ZM107.368 60.4053H111.854C115.982 60.4053 119.332 63.4381 119.332 67.1749V86.1297C119.332 89.8665 115.982 92.8993 111.854 92.8993H107.368V60.4053ZM59.5124 50.9279C59.5124 47.1911 62.8623 44.1583 66.9899 44.1583H93.9085C98.0361 44.1583 101.386 47.1911 101.386 50.9279V54.9897H59.5124V50.9279ZM95.404 68.5288V95.6071C95.404 96.3253 95.0889 97.014 94.528 97.5219C93.9671 98.0297 93.2063 98.315 92.413 98.315C91.6198 98.315 90.859 98.0297 90.2981 97.5219C89.7372 97.014 89.4221 96.3253 89.4221 95.6071V68.5288C89.4221 67.8107 89.7372 67.1219 90.2981 66.6141C90.859 66.1063 91.6198 65.821 92.413 65.821C93.2063 65.821 93.9671 66.1063 94.528 66.6141C95.0889 67.1219 95.404 67.8107 95.404 68.5288ZM80.4492 65.821C81.2424 65.821 82.0032 66.1063 82.5641 66.6141C83.125 67.1219 83.4402 67.8107 83.4402 68.5288V95.6071C83.4402 96.3253 83.125 97.014 82.5641 97.5219C82.0032 98.0297 81.2424 98.315 80.4492 98.315C79.6559 98.315 78.8952 98.0297 78.3343 97.5219C77.7733 97.014 77.4582 96.3253 77.4582 95.6071V68.5288C77.4582 67.8107 77.7733 67.1219 78.3343 66.6141C78.8952 66.1063 79.6559 65.821 80.4492 65.821ZM71.4763 68.5288V95.6071C71.4763 96.3253 71.1612 97.014 70.6003 97.5219C70.0394 98.0297 69.2786 98.315 68.4853 98.315C67.6921 98.315 66.9313 98.0297 66.3704 97.5219C65.8095 97.014 65.4944 96.3253 65.4944 95.6071V68.5288C65.4944 67.8107 65.8095 67.1219 66.3704 66.6141C66.9313 66.1063 67.6921 65.821 68.4853 65.821C69.2786 65.821 70.0394 66.1063 70.6003 66.6141C71.1612 67.1219 71.4763 67.8107 71.4763 68.5288Z" fill="#F8F8F8"/>
</svg>
