<svg width="106" height="32" viewBox="0 0 106 32" fill="none" xmlns="http://www.w3.org/2000/svg">
<path d="M4 16H16V18H4V16ZM2 11H12V13H2V11Z" fill="#FF2D55"/>
<path d="M29.919 16.606L26.919 9.606C26.842 9.42608 26.7139 9.27273 26.5505 9.165C26.3871 9.05727 26.1957 8.99989 26 9H23V7C23 6.73478 22.8946 6.48043 22.7071 6.29289C22.5196 6.10536 22.2652 6 22 6H6V8H21V20.556C20.5443 20.8206 20.1456 21.1728 19.8267 21.5922C19.5078 22.0117 19.2751 22.4902 19.142 23H12.858C12.6146 22.0573 12.0358 21.2358 11.23 20.6894C10.4242 20.143 9.44681 19.9092 8.481 20.0319C7.51519 20.1546 6.62727 20.6253 5.98368 21.3558C5.34009 22.0863 4.98502 23.0264 4.98502 24C4.98502 24.9736 5.34009 25.9137 5.98368 26.6442C6.62727 27.3747 7.51519 27.8454 8.481 27.9681C9.44681 28.0908 10.4242 27.857 11.23 27.3106C12.0358 26.7642 12.6146 25.9427 12.858 25H19.142C19.3595 25.8582 19.857 26.6194 20.5558 27.1632C21.2545 27.7069 22.1146 28.0021 23 28.0021C23.8854 28.0021 24.7455 27.7069 25.4442 27.1632C26.143 26.6194 26.6405 25.8582 26.858 25H29C29.2652 25 29.5196 24.8946 29.7071 24.7071C29.8946 24.5196 30 24.2652 30 24V17C30 16.8645 29.9725 16.7305 29.919 16.606ZM9 26C8.60444 26 8.21776 25.8827 7.88886 25.6629C7.55996 25.4432 7.30362 25.1308 7.15224 24.7654C7.00086 24.3999 6.96126 23.9978 7.03843 23.6098C7.1156 23.2219 7.30608 22.8655 7.58579 22.5858C7.86549 22.3061 8.22186 22.1156 8.60982 22.0384C8.99778 21.9613 9.39991 22.0009 9.76537 22.1522C10.1308 22.3036 10.4432 22.56 10.6629 22.8889C10.8827 23.2178 11 23.6044 11 24C10.9995 24.5303 10.7886 25.0387 10.4136 25.4136C10.0387 25.7886 9.53027 25.9995 9 26ZM23 11H25.34L27.484 16H23V11ZM23 26C22.6044 26 22.2178 25.8827 21.8889 25.6629C21.56 25.4432 21.3036 25.1308 21.1522 24.7654C21.0009 24.3999 20.9613 23.9978 21.0384 23.6098C21.1156 23.2219 21.3061 22.8655 21.5858 22.5858C21.8655 22.3061 22.2219 22.1156 22.6098 22.0384C22.9978 21.9613 23.3999 22.0009 23.7654 22.1522C24.1308 22.3036 24.4432 22.56 24.6629 22.8889C24.8827 23.2178 25 23.6044 25 24C24.9995 24.5303 24.7886 25.0387 24.4136 25.4136C24.0387 25.7886 23.5303 25.9995 23 26ZM28 23H26.858C26.6377 22.1434 26.1394 21.3842 25.4412 20.8413C24.743 20.2983 23.8844 20.0025 23 20V18H28V23Z" fill="#FF2D55"/>
<path d="M42.436 11.49C43.768 11.49 44.932 11.748 45.928 12.264C46.936 12.768 47.71 13.5 48.25 14.46C48.802 15.408 49.078 16.518 49.078 17.79C49.078 19.062 48.802 20.166 48.25 21.102C47.71 22.038 46.936 22.758 45.928 23.262C44.932 23.754 43.768 24 42.436 24H38.35V11.49H42.436ZM42.436 22.326C43.9 22.326 45.022 21.93 45.802 21.138C46.582 20.346 46.972 19.23 46.972 17.79C46.972 16.338 46.582 15.204 45.802 14.388C45.022 13.572 43.9 13.164 42.436 13.164H40.402V22.326H42.436ZM59.6617 18.798C59.6617 19.17 59.6377 19.506 59.5897 19.806H52.0117C52.0717 20.598 52.3657 21.234 52.8937 21.714C53.4217 22.194 54.0697 22.434 54.8377 22.434C55.9417 22.434 56.7217 21.972 57.1777 21.048H59.3917C59.0917 21.96 58.5457 22.71 57.7537 23.298C56.9737 23.874 56.0017 24.162 54.8377 24.162C53.8897 24.162 53.0377 23.952 52.2817 23.532C51.5377 23.1 50.9497 22.5 50.5177 21.732C50.0977 20.952 49.8877 20.052 49.8877 19.032C49.8877 18.012 50.0917 17.118 50.4997 16.35C50.9197 15.57 51.5017 14.97 52.2457 14.55C53.0017 14.13 53.8657 13.92 54.8377 13.92C55.7737 13.92 56.6077 14.124 57.3397 14.532C58.0717 14.94 58.6417 15.516 59.0497 16.26C59.4577 16.992 59.6617 17.838 59.6617 18.798ZM57.5197 18.15C57.5077 17.394 57.2377 16.788 56.7097 16.332C56.1817 15.876 55.5277 15.648 54.7477 15.648C54.0397 15.648 53.4337 15.876 52.9297 16.332C52.4257 16.776 52.1257 17.382 52.0297 18.15H57.5197ZM63.1931 10.68V24H61.1411V10.68H63.1931ZM66.3912 12.768C66.0192 12.768 65.7072 12.642 65.4552 12.39C65.2032 12.138 65.0772 11.826 65.0772 11.454C65.0772 11.082 65.2032 10.77 65.4552 10.518C65.7072 10.266 66.0192 10.14 66.3912 10.14C66.7512 10.14 67.0572 10.266 67.3092 10.518C67.5612 10.77 67.6872 11.082 67.6872 11.454C67.6872 11.826 67.5612 12.138 67.3092 12.39C67.0572 12.642 66.7512 12.768 66.3912 12.768ZM67.3992 14.082V24H65.3472V14.082H67.3992ZM73.3873 22.164L76.1953 14.082H78.3733L74.5933 24H72.1453L68.3833 14.082H70.5793L73.3873 22.164ZM88.4744 18.798C88.4744 19.17 88.4504 19.506 88.4024 19.806H80.8244C80.8844 20.598 81.1784 21.234 81.7064 21.714C82.2344 22.194 82.8824 22.434 83.6504 22.434C84.7544 22.434 85.5344 21.972 85.9904 21.048H88.2044C87.9044 21.96 87.3584 22.71 86.5664 23.298C85.7864 23.874 84.8144 24.162 83.6504 24.162C82.7024 24.162 81.8504 23.952 81.0944 23.532C80.3504 23.1 79.7624 22.5 79.3304 21.732C78.9104 20.952 78.7004 20.052 78.7004 19.032C78.7004 18.012 78.9044 17.118 79.3124 16.35C79.7324 15.57 80.3144 14.97 81.0584 14.55C81.8144 14.13 82.6784 13.92 83.6504 13.92C84.5864 13.92 85.4204 14.124 86.1524 14.532C86.8844 14.94 87.4544 15.516 87.8624 16.26C88.2704 16.992 88.4744 17.838 88.4744 18.798ZM86.3324 18.15C86.3204 17.394 86.0504 16.788 85.5224 16.332C84.9944 15.876 84.3404 15.648 83.5604 15.648C82.8524 15.648 82.2464 15.876 81.7424 16.332C81.2384 16.776 80.9384 17.382 80.8424 18.15H86.3324ZM92.0057 15.522C92.3057 15.018 92.7017 14.628 93.1937 14.352C93.6977 14.064 94.2917 13.92 94.9757 13.92V16.044H94.4537C93.6497 16.044 93.0377 16.248 92.6177 16.656C92.2097 17.064 92.0057 17.772 92.0057 18.78V24H89.9537V14.082H92.0057V15.522ZM105.25 14.082L99.166 28.662H97.042L99.058 23.838L95.152 14.082H97.438L100.228 21.642L103.126 14.082H105.25Z" fill="#FF2D55"/>
</svg>
