<svg width="167" height="167" viewBox="0 0 167 167" fill="none" xmlns="http://www.w3.org/2000/svg">
<rect x="0.960205" width="165.653" height="166.636" rx="25" fill="#FF2D55"/>
<g clip-path="url(#clip0_426_1810)">
<path d="M115.134 90.9536L75.3389 54.9258C68.2326 48.4923 57.4152 47.7581 50.7351 53.8059C44.055 59.8537 44.8659 69.6471 51.9722 76.0806L91.767 112.108C98.8705 118.539 109.689 119.272 116.368 113.226C123.048 107.178 122.237 97.3847 115.134 90.9536ZM94.5202 109.623L74.7891 91.76L92.6577 75.5828L112.389 93.4462C117.628 98.1898 117.913 105.702 112.985 110.163C108.058 114.625 99.7612 114.368 94.5202 109.623Z" fill="#F8F8F8"/>
</g>
<defs>
<clipPath id="clip0_426_1810">
<rect width="92.7066" height="92.7066" fill="white" transform="matrix(0.741323 0.671148 -0.741323 0.671148 84.4106 20.8296)"/>
</clipPath>
</defs>
</svg>
