<svg width="167" height="167" viewBox="0 0 167 167" fill="none" xmlns="http://www.w3.org/2000/svg">
<rect x="0.65332" width="165.653" height="166.636" rx="25" fill="#5AC8FA"/>
<path d="M62.1473 69.4972L66.4058 43.9082H44.2571L35.0025 65.8416C34.7172 66.6215 34.5664 67.4306 34.5664 68.2787C34.5664 73.6597 40.7577 78.0269 48.408 78.0269C55.4607 78.0269 61.2913 74.3031 62.1473 69.4972ZM83.02 78.0269C90.6649 78.0269 96.8616 73.6597 96.8616 68.2787C96.8616 68.0788 96.8454 67.879 96.8347 67.6889L94.0944 43.9082H71.9457L69.2 67.6694C69.1892 67.8693 69.1784 68.0691 69.1784 68.2787C69.1784 73.6597 75.3751 78.0269 83.02 78.0269ZM109.939 83.1252V102.397H56.1013V83.1544C53.7433 83.9245 51.1483 84.3632 48.408 84.3632C47.3582 84.3632 46.3406 84.2511 45.3339 84.1244V115.07C45.3339 118.823 48.7202 121.894 52.8603 121.894H113.169C117.314 121.894 120.706 118.818 120.706 115.07V84.1292C119.688 84.2707 118.661 84.3505 117.632 84.3681C115.007 84.3657 112.403 83.945 109.939 83.1252ZM131.043 65.8416L121.778 43.9082H99.6342L103.887 69.4582C104.716 74.2836 110.547 78.0269 117.632 78.0269C125.277 78.0269 131.474 73.6597 131.474 68.2787C131.474 67.4306 131.323 66.6215 131.043 65.8416Z" fill="white"/>
</svg>
