<svg width="39" height="39" viewBox="0 0 39 39" fill="none" xmlns="http://www.w3.org/2000/svg">
<path d="M30.7125 32.9875L21.6125 23.8875C20.8 24.5375 19.8656 25.0521 18.8094 25.4312C17.7531 25.8104 16.6292 26 15.4375 26C12.4854 26 9.98725 24.9779 7.943 22.9336C5.89767 20.8883 4.875 18.3896 4.875 15.4375C4.875 12.4854 5.89767 9.98671 7.943 7.94138C9.98725 5.89713 12.4854 4.875 15.4375 4.875C18.3896 4.875 20.8883 5.89713 22.9336 7.94138C24.9779 9.98671 26 12.4854 26 15.4375C26 16.6292 25.8104 17.7531 25.4312 18.8094C25.0521 19.8656 24.5375 20.8 23.8875 21.6125L33.0281 30.7531C33.326 31.051 33.475 31.4167 33.475 31.85C33.475 32.2833 33.3125 32.6625 32.9875 32.9875C32.6896 33.2854 32.3104 33.4344 31.85 33.4344C31.3896 33.4344 31.0104 33.2854 30.7125 32.9875ZM15.4375 22.75C17.4688 22.75 19.1956 22.0393 20.618 20.618C22.0393 19.1956 22.75 17.4688 22.75 15.4375C22.75 13.4062 22.0393 11.6794 20.618 10.257C19.1956 8.83567 17.4688 8.125 15.4375 8.125C13.4062 8.125 11.6794 8.83567 10.257 10.257C8.83567 11.6794 8.125 13.4062 8.125 15.4375C8.125 17.4688 8.83567 19.1956 10.257 20.618C11.6794 22.0393 13.4062 22.75 15.4375 22.75Z" fill="white"/>
</svg>
