<svg width="166" height="167" viewBox="0 0 166 167" fill="none" xmlns="http://www.w3.org/2000/svg">
<rect width="165.653" height="166.636" rx="25" fill="#FF8C00"/>
<path d="M111.471 54.8229H53.8932L53.3378 52.8233C52.7206 50.2682 51.3321 48.1852 49.1722 46.5744C47.0122 44.9636 44.4511 44.1582 41.4889 44.1582H32.4172C31.3064 44.1582 30.3807 44.4915 29.6401 45.158C28.8996 45.8246 28.5293 46.7133 28.5293 47.8242C28.5293 48.824 28.8996 49.6572 29.6401 50.3237C30.3807 50.9903 31.3064 51.3235 32.4172 51.3235H41.4889C43.834 51.3235 45.1917 52.2678 45.562 54.1564L54.6337 96.8151C55.3743 99.148 56.8245 101.037 58.9845 102.481C61.1444 103.925 63.5203 104.647 66.1123 104.647H103.51C104.744 104.647 105.732 104.314 106.472 103.647C107.213 102.981 107.583 102.147 107.583 101.148C107.583 98.7036 106.225 97.4817 103.51 97.4817H66.1123C64.3843 97.4817 63.1501 96.8151 62.4095 95.482L62.0392 93.9823H101.659C104.127 93.9823 106.38 93.3158 108.416 91.9827C110.453 90.6496 111.841 88.9277 112.582 86.817L123.32 66.3208V65.4876C123.32 62.4881 122.178 59.9608 119.895 57.9057C117.611 55.8505 114.804 54.8229 111.471 54.8229ZM64.0758 86.817H60.5581L55.3743 61.9882H64.0758V86.817ZM79.8125 86.817H72.0367V61.9882H79.8125V86.817ZM95.7343 86.817H87.7734V61.9882H95.7343V86.817ZM105.547 83.9842V84.3174C105.176 85.4283 104.497 86.1504 103.51 86.4837V61.9882H111.471C113.693 61.9882 114.989 62.9325 115.359 64.821L105.547 83.9842ZM75.9246 115.312C75.9246 117.311 75.1532 119.005 73.6103 120.394C72.0675 121.783 70.1853 122.477 67.9636 122.477C65.8654 122.477 64.0449 121.783 62.5021 120.394C60.9593 119.005 60.1879 117.311 60.1879 115.312C60.1879 113.312 60.9593 111.618 62.5021 110.229C64.0449 108.841 65.8654 108.146 67.9636 108.146C70.1853 108.146 72.0675 108.841 73.6103 110.229C75.1532 111.618 75.9246 113.312 75.9246 115.312ZM107.583 115.312C107.583 117.311 106.812 119.005 105.269 120.394C103.726 121.783 101.844 122.477 99.6222 122.477C97.4006 122.477 95.5183 121.783 93.9755 120.394C92.4327 119.005 91.6613 117.311 91.6613 115.312C91.6613 113.312 92.4327 111.618 93.9755 110.229C95.5183 108.841 97.4006 108.146 99.6222 108.146C101.844 108.146 103.726 108.841 105.269 110.229C106.812 111.618 107.583 113.312 107.583 115.312Z" fill="white"/>
</svg>
