<svg width="166" height="167" viewBox="0 0 166 167" fill="none" xmlns="http://www.w3.org/2000/svg">
<rect x="0.306641" width="165.653" height="166.636" rx="25" fill="#5856D6"/>
<path fill-rule="evenodd" clip-rule="evenodd" d="M49.2763 68.7762C48.5129 69.2366 47.7305 69.7086 46.9493 69.7069C44.5591 69.7095 42.1481 68.8252 40.3993 67.1075C38.8257 65.5645 38.0359 63.5861 38.0388 61.6372C38.0359 59.4733 39.0068 57.2852 40.9041 55.7019C53.431 45.2345 69.503 39.99 85.5454 39.9927C101.591 39.99 117.66 45.1914 130.187 55.6589C132.084 57.2422 133.055 59.3685 133.052 61.5297C133.055 63.4785 132.265 65.3441 130.692 66.8897C128.943 68.6021 126.535 69.2606 124.145 69.2579C123.208 69.2579 122.271 68.8428 121.366 68.442C121.092 68.3207 120.822 68.2008 120.555 68.094L93.6987 119.332H93.6928C92.1696 122.02 88.7788 124.173 85.5484 124.143C82.3179 124.173 78.9272 122.02 77.404 119.332H77.398L50.542 68.0967C50.1285 68.2621 49.7054 68.5173 49.2763 68.7762L49.2763 68.7762ZM91.4837 99.0527C91.4897 101.515 93.3484 103.579 95.8544 104.211L100.777 94.655C99.8182 94.0502 98.678 93.6765 97.4221 93.6765C94.156 93.6819 91.4897 96.0958 91.4837 99.0527ZM103.295 89.7682C101.555 88.8623 99.5688 88.2978 97.4221 88.2978C90.8632 88.3032 85.5513 93.1149 85.5454 99.0502C85.5484 103.679 88.7996 107.59 93.3335 109.104L88.3127 118.848L88.2741 118.926C87.7218 120.06 86.7182 120.525 85.5454 120.555C84.3726 120.525 83.369 120.06 82.8167 118.926L82.7781 118.848L55.4143 65.7286C64.1377 59.3578 74.8178 56.1294 85.5454 56.1294C96.273 56.1321 106.95 59.3578 115.679 65.7313L103.295 89.7682ZM85.5454 45.3958C70.9164 45.3984 56.311 50.1564 44.9332 59.6668C44.2919 60.2018 43.9801 60.9087 43.9771 61.6426C43.9801 62.3039 44.2325 62.9409 44.764 63.4651C45.3578 64.0457 46.1387 64.328 46.9493 64.3307C47.6767 64.328 48.3774 64.0995 48.9594 63.6157C49.0511 63.5395 49.1476 63.4698 49.2443 63.3999C49.3354 63.334 49.4268 63.268 49.5146 63.1963C49.55 63.1597 49.594 63.13 49.6379 63.1004C49.6714 63.0778 49.7048 63.0552 49.7344 63.0296C59.8889 54.8632 72.7186 50.7504 85.5454 50.7531C98.3722 50.7504 111.205 54.8632 121.356 63.027C121.386 63.0512 121.417 63.0728 121.449 63.0942C121.494 63.125 121.539 63.1556 121.576 63.1936C121.664 63.2652 121.754 63.3311 121.845 63.3968C121.941 63.4668 122.037 63.5367 122.128 63.613C122.71 64.0968 123.417 64.3253 124.142 64.328C124.952 64.3253 125.736 64.0431 126.327 63.4651C126.858 62.9409 127.111 62.3039 127.114 61.6426C127.111 60.9087 126.799 60.2018 126.158 59.6668C114.78 50.1564 100.174 45.3984 85.5454 45.3958Z" fill="white"/>
<path fill-rule="evenodd" clip-rule="evenodd" d="M79.6071 82.9242C73.0482 82.9188 67.7364 78.1071 67.7305 72.1718C67.7364 66.2338 73.0512 61.4221 79.6071 61.4194C86.166 61.4248 91.4778 66.2365 91.4838 72.1718C91.4778 78.1071 86.163 82.9188 79.6071 82.9242ZM79.6072 77.5478C82.8732 77.5424 85.5395 75.1285 85.5455 72.1716C85.5395 69.212 82.8732 66.8008 79.6072 66.7954C76.3411 66.8008 73.6748 69.2147 73.6688 72.1716C73.6748 75.1285 76.3411 77.5424 79.6072 77.5478Z" fill="white"/>
</svg>
