<svg width="112" height="84" viewBox="0 0 112 84" fill="none" xmlns="http://www.w3.org/2000/svg">
<path d="M15.7973 45.944C18.2162 46.2537 19.5608 47.0347 19.8311 48.2865C19.9797 48.9327 20.1014 49.9286 20.196 51.2748L20.2973 53.0315L20.3987 54.7683C20.4527 55.6566 20.4595 56.6728 20.419 57.8173L20.3581 59.2307L20.3176 60.6845C20.25 62.1788 20.0338 63.0809 19.669 63.3902C19.4122 63.6193 18.5135 63.7404 16.973 63.7537C16.419 63.7537 15.7568 63.7468 14.9865 63.7335L14.0541 63.693L13.2433 63.6728C11.2973 63.6056 9.25002 63.6258 7.10139 63.7335C6.31761 63.774 5.40543 63.7537 4.36491 63.6728L1.60814 63.4509C0.797325 63.3699 0.405433 62.9999 0.43246 62.3404C0.540568 60.3748 0.675703 58.625 0.837865 57.0902C0.945974 56.1076 1.71624 55.7035 3.14868 55.8788L5.39869 56.1817L7.64868 56.4643C8.10814 56.5048 8.60137 56.5315 9.12842 56.5452C9.81758 56.5586 10.4392 56.5517 10.9933 56.525C12.5203 56.4173 13.3244 56.1076 13.4054 55.5958C13.5 54.9768 13.473 54.2566 13.3244 53.4355C13.0676 52.3048 11.1352 51.6922 7.52703 51.5979H7.10139L6.53382 51.6181C6.02031 51.6181 5.57434 51.6112 5.19596 51.5979C3.97975 51.5173 3.02705 51.2817 2.33787 50.8914C1.82435 50.5817 1.473 49.727 1.28381 48.327C1.22976 47.8019 1.19597 47.2501 1.18246 46.6712C1.18246 46.1865 1.19597 45.776 1.223 45.4392C1.26354 44.0796 1.25003 42.7335 1.18246 41.4009L1.10138 39.6441L0.979755 37.847C0.898674 36.622 1.5203 35.821 2.84462 35.4441C3.83111 35.148 4.93923 34.9865 6.16894 34.9595C11.5068 34.798 14.7027 34.7778 15.7568 34.8989C17.946 35.1412 19.1284 35.323 19.3041 35.4441C19.669 35.673 19.9865 36.6691 20.2568 38.4326L20.277 39.0788L20.2568 39.7249C20.2162 40.6403 20.0406 41.1989 19.7298 41.4009C19.4189 41.6028 18.696 41.623 17.5608 41.4614C16.2636 41.2865 14.5338 41.2191 12.3717 41.2595L11.3176 41.2797L10.3244 41.3605C9.60816 41.4547 9.0338 41.6835 8.60137 42.047C8.39869 42.222 8.24327 42.6595 8.13516 43.3594C8.02705 44.0056 8.00677 44.4635 8.07436 44.7327C8.16894 45.1096 8.47302 45.3384 8.98649 45.4193L15.7973 45.944ZM30.4641 51.4161C30.5587 51.4837 30.6668 51.8335 30.7884 52.4663L30.9506 53.3748L31.1127 54.3035C31.1803 54.7209 30.9911 54.9837 30.5451 55.0914C29.8695 55.2529 29.2816 55.3606 28.7816 55.4145C27.6465 55.5489 26.9979 55.7307 26.8357 55.9594C26.7411 56.0942 26.687 56.7468 26.6735 57.9181C26.6735 58.5914 26.7614 59.0222 26.9371 59.2104C27.1263 59.3853 27.5654 59.4728 28.2546 59.4728L30.2816 59.4124L32.2884 59.2914C32.4776 59.2914 32.7614 59.2914 33.1397 59.2914C33.5317 59.2914 33.9168 59.2914 34.2952 59.2914C35.2816 59.3315 35.8087 59.3991 35.8762 59.493C35.9979 59.6683 36.0654 60.0048 36.0789 60.5027L36.0992 60.9671L36.16 61.472C36.2141 61.9432 36.2276 62.293 36.2005 62.5222C36.1195 63.3161 35.5789 63.6999 34.5789 63.6728C33.3492 63.727 31.7006 63.7537 29.633 63.7537C27.2141 63.7537 25.0722 63.7068 23.2073 63.6124C22.6803 63.6124 22.4168 63.3363 22.4168 62.7845L22.3965 61.3712L22.3762 60.0384C22.3762 58.9886 22.3627 58.0663 22.3357 57.272C22.2816 55.1586 22.16 53.3209 21.9708 51.7594L21.5654 48.044L21.16 44.3286V43.8845C21.2276 43.4266 21.5046 43.1979 21.9911 43.1979H30.3425C32.6127 43.1845 33.9235 43.1376 34.2749 43.0566C34.7884 42.9489 35.0924 43.1845 35.187 43.7635L35.2478 44.5104C35.2344 45.2643 35.1262 45.7424 34.9235 45.944C34.7208 46.146 34.2411 46.2468 33.4843 46.2468C31.4033 46.2335 29.3154 46.4286 27.2208 46.8327C26.6938 46.9404 26.3695 47.2566 26.2479 47.7817C26.1533 48.172 26.0789 48.7712 26.0249 49.5788L25.9843 50.5481L25.9641 50.9922L25.9438 51.376C25.9303 51.8335 26.16 52.042 26.633 52.0019C26.7951 51.9886 27.0857 51.9343 27.5046 51.8404L28.0722 51.6991L28.6803 51.5776C29.6668 51.3622 30.2614 51.3084 30.4641 51.4161ZM45.3942 50.4873C45.3133 50.8509 45.0971 51.0529 44.7455 51.093L42.3741 51.2748C42.1038 51.2881 41.9551 51.1606 41.9281 50.8914L41.8673 50.0635L41.847 49.7404V49.4979C41.9281 48.2865 42.2862 47.5796 42.9214 47.3776C43.07 47.3238 43.2796 47.2768 43.5499 47.2363C43.8469 47.1958 44.1306 47.176 44.4009 47.176C45.1308 47.1622 45.5295 47.2971 45.597 47.5796C45.7051 48.0104 45.7254 48.5153 45.658 49.0942L45.536 49.8209L45.3942 50.4873ZM50.4415 48.1048C50.266 47.0145 50.1241 46.2671 50.016 45.8635L49.9144 45.4392L49.7726 44.9545C49.6645 44.5776 49.5633 44.2817 49.4686 44.0663C49.1849 43.3392 48.5834 42.996 47.6645 43.0364L46.2456 43.0971L44.8874 43.1173C43.7929 43.144 42.8741 43.1914 42.1308 43.2586C41.9416 43.272 41.6714 43.2788 41.32 43.2788H40.3065C39.4281 43.2922 38.9011 43.3056 38.7254 43.3189C37.8335 43.3999 37.2863 43.7363 37.0835 44.3286C37.0295 44.5173 36.9822 45.0222 36.9416 45.8432C36.9146 46.6376 36.9146 47.2432 36.9416 47.6606C37.2389 52.1299 37.3944 55.6699 37.4078 58.2817C37.3944 58.8201 37.4484 59.5201 37.57 60.3817L37.7525 61.4517L37.8741 62.4817C37.9551 63.3699 38.3605 63.774 39.0903 63.693C39.2795 63.6796 39.5362 63.6728 39.8606 63.6728L40.7525 63.7132C41.5362 63.7537 42.0295 63.7537 42.2322 63.7132C42.516 63.6056 42.6241 63.195 42.5565 62.4817L42.4957 61.593L42.3944 60.7048L42.3538 60.4222L42.293 59.9578C42.2389 59.5404 42.1916 59.1566 42.1511 58.8068C42.043 57.7699 42.0362 57.1376 42.1308 56.9084C42.7119 56.9894 43.3401 57.3663 44.016 58.0392C44.5432 58.5914 44.9553 59.1566 45.2523 59.7355C45.3605 59.9643 45.5092 60.3343 45.6982 60.846L45.9213 61.5124L46.1241 62.1384L46.2456 62.5622L46.3875 63.0873C46.5362 63.5181 46.7118 63.7335 46.9146 63.7335L47.5226 63.7132L48.2119 63.693C48.8065 63.693 49.2658 63.6999 49.5901 63.7132C50.266 63.7671 50.6171 63.6728 50.6443 63.4307C50.7252 62.2594 50.4688 60.7586 49.8742 58.9278C49.6441 58.2545 49.3877 57.5683 49.1036 56.8683C48.8606 56.3299 48.6309 55.8452 48.4147 55.4145C48.1306 54.8489 47.8063 54.3509 47.4417 53.9201C48.4822 53.5971 49.1715 53.3545 49.5092 53.193C50.0091 52.9376 50.3403 52.1768 50.5025 50.9116C50.6106 49.9825 50.5903 49.0468 50.4415 48.1048ZM56.7572 52.1432V51.4768C56.7572 51.1132 56.7503 50.8979 56.7369 50.8307L56.7166 50.2452L56.6962 49.6392C56.6288 49.1817 56.4532 48.9529 56.1691 48.9529C55.9935 48.9529 55.6965 48.9392 55.2774 48.9124L54.1829 48.8922C53.2234 48.8655 52.5003 48.9124 52.0139 49.0335C51.6355 49.1278 51.4396 48.9392 51.4262 48.4683C51.507 47.795 51.5611 47.1622 51.5883 46.5699C51.6017 46.0991 51.6082 45.6412 51.6082 45.1971C51.5814 44.3622 51.568 43.9452 51.568 43.9452C51.6895 43.5817 51.9261 43.3796 52.2772 43.3392C52.9665 43.272 53.5814 43.2384 54.122 43.2384C54.8515 43.225 55.8785 43.2452 57.203 43.2991L58.7032 43.3594L60.0813 43.3999C60.8515 43.3999 61.6826 43.3732 62.5747 43.3189C63.2502 43.2788 64.0005 43.225 64.8247 43.1578C64.9462 43.144 65.2234 43.1238 65.6558 43.0971C66.0882 43.0566 66.3719 43.0364 66.5073 43.0364C66.6828 43.023 66.8316 43.1238 66.9531 43.3392C67.0746 43.5412 67.1083 43.7432 67.0543 43.9452C66.7572 45.2776 66.6015 46.5027 66.5881 47.6201C66.5881 48.1991 66.2707 48.495 65.6355 48.5084C64.9734 48.5222 64.1289 48.576 63.1019 48.6699C62.2772 48.7238 61.8517 49.3699 61.8244 50.6084C61.8244 51.4161 61.8111 52.6278 61.7842 54.2432L61.7436 56.1007V59.1497L61.7639 60.3412C61.7773 61.3104 61.7704 62.125 61.7436 62.7845C61.7163 63.3768 61.4327 63.693 60.8921 63.7335L59.3315 63.7537H57.7704C57.2299 63.7671 56.9125 63.7404 56.8178 63.6728C56.6962 63.5651 56.6353 63.2222 56.6353 62.6432L56.7572 52.1432ZM73.8158 44.2881C73.7886 43.9116 73.8158 43.5614 73.8967 43.2384L74.0995 42.5316L74.4035 41.8653C74.5116 41.6768 75.0724 41.5086 76.0861 41.3605L77.3224 41.2191C77.7008 41.1788 78.0182 41.1518 78.275 41.1384C79.8292 41.0845 80.6668 41.8114 80.7888 43.3189C80.9371 45.2979 81.2346 47.7278 81.6805 50.6084C81.7345 50.9991 81.7548 51.4837 81.7414 52.0622L81.7008 53.476L81.5386 54.5865L81.3764 55.6363C81.1736 56.5788 80.5994 57.1173 79.6536 57.2517C78.275 57.4537 77.0794 57.4404 76.0657 57.2112C75.1736 56.9958 74.586 56.4574 74.3023 55.5958C73.8699 54.344 73.6805 52.8902 73.7345 51.2347L73.8763 47.7614C73.917 46.4019 73.8967 45.244 73.8158 44.2881ZM86.9306 62.1181C87.0655 61.8622 87.1875 61.4384 87.2956 60.846C87.4037 60.3209 87.4642 59.8768 87.4776 59.5132C87.5183 58.0865 87.4508 56.3699 87.2753 54.3643L87.0928 51.9614C87.0387 51.0327 87.0115 50.1238 87.0115 49.2355C87.0115 48.7914 86.944 47.9497 86.8091 46.7116C86.7953 46.2266 86.7615 45.4594 86.7075 44.4096L86.6469 43.2384L86.6063 42.7335L86.586 42.3701C86.4779 40.2566 86.2145 38.7153 85.7955 37.7461L85.613 37.3624L85.3496 36.8374C85.0794 36.3932 84.8022 36.0364 84.5185 35.7672C84.3291 35.5788 84.0861 35.4105 83.7886 35.2624C83.3968 35.0739 82.9981 34.9528 82.5929 34.8989L81.7414 34.8384L80.9103 34.8586C77.1806 34.8586 74.6738 34.946 73.3899 35.121L72.9847 35.1614L72.5587 35.2018C72.1942 35.2287 71.8292 35.2826 71.4642 35.3634L70.5522 35.5653L69.6199 35.9086C68.9574 36.272 68.5587 36.8643 68.4238 37.6855L68.3226 38.2307L68.2007 38.8768C68.1198 39.4153 68.1064 39.7989 68.1605 40.0278C68.1873 40.8489 68.1669 42.0874 68.0995 43.7432L67.9983 46.025L67.8763 48.3873C67.6874 52.4258 67.6467 54.923 67.7548 55.8788L67.8361 57.1307V58.3622C67.8223 59.4391 67.8629 60.274 67.9576 60.8663C68.1604 62.0509 68.6941 62.8853 69.5589 63.3699C70.1535 63.7068 71.5858 63.8209 73.856 63.7132L75.1736 63.6529L76.4104 63.572C77.3427 63.5048 77.9576 63.4776 78.2547 63.4914L80.0792 63.5517L81.802 63.5922C83.0993 63.6327 84.1873 63.5853 85.0655 63.4509C85.8763 63.3432 86.4982 62.8991 86.9306 62.1181ZM95.9014 63.4307C96.0636 63.1886 96.1851 62.2193 96.2664 60.523C96.3339 58.8132 96.3001 57.6153 96.1648 56.9286L96.1444 56.7671L96.1042 56.5048L96.0229 55.7776C95.9689 55.1181 96.0026 54.7748 96.1245 54.7481C96.2054 54.7343 96.9284 55.7173 98.2932 57.6963C99.712 59.7286 100.516 61.0145 100.705 61.5529C100.895 62.0914 101.117 62.5958 101.374 63.0671C101.604 63.4979 101.915 63.7132 102.307 63.7132L106.361 63.6327C106.888 63.6056 107.199 63.3027 107.293 62.7238L107.314 61.8355C107.3 61.2837 107.28 60.6643 107.253 59.9776C107.199 58.174 107.117 56.9084 107.009 56.1817C106.874 55.2124 106.807 53.6643 106.807 51.5376L106.827 49.2558C106.827 48.5019 106.807 47.9566 106.766 47.6201C106.739 47.3104 106.705 46.4019 106.665 44.8942L106.624 43.2384C106.597 42.673 106.584 42.3095 106.584 42.148L106.563 41.2999L106.584 40.3307C106.597 39.496 106.591 38.8903 106.563 38.5133C106.55 38.4056 106.543 38.197 106.543 37.8874L106.503 37.0393C106.476 36.2989 106.408 35.8143 106.3 35.5855C106.125 35.1547 105.732 34.9124 105.124 34.8586H104.273L103.381 34.8788L102.753 34.8586L102.104 34.8384C101.564 34.8653 100.982 35.0066 100.361 35.2624C99.6446 35.5586 99.4219 36.4672 99.6921 37.9884C99.8811 39.146 100.111 41.2326 100.381 44.2481C100.651 47.2902 100.746 48.9594 100.665 49.2558V49.6999C100.665 49.8614 100.563 49.9355 100.361 49.9222C100.28 49.9222 100.185 49.8748 100.077 49.7804L99.8543 49.4776C99.5974 48.8315 99.2056 47.9971 98.6785 46.974L98.0095 45.6412L97.3406 44.3691C96.3269 42.3768 95.5096 40.0682 94.8878 37.4432C94.6988 36.6758 94.4082 36.0297 94.0164 35.5047C93.5568 34.9258 93.0028 34.7239 92.3542 34.8989L91.6446 35.0403L90.7326 35.1614C89.9217 35.2961 89.2934 35.4912 88.8472 35.747C88.4826 35.9624 88.2729 36.4268 88.2188 37.1403L88.2392 38.0489L88.3607 38.8566C88.4286 39.1258 88.5367 41.6364 88.685 46.3886C88.7663 48.7035 88.8407 50.5817 88.9081 52.0222C89.0162 54.0412 89.1313 55.5825 89.2528 56.646L89.3336 57.1914L89.4149 57.7566C89.4958 58.2278 89.5364 58.5238 89.5364 58.6452C89.5637 59.0489 89.5771 59.4728 89.5771 59.9173L89.5161 60.9873C89.4759 61.7817 89.4824 62.3335 89.5364 62.6432C89.6852 63.3699 90.0973 63.7201 90.7732 63.693C91.9486 63.6529 93.1377 63.6529 94.3408 63.693L94.7053 63.7335L95.1516 63.7537C95.5161 63.7404 95.7661 63.6327 95.9014 63.4307Z" fill="#FF7121"/>
<path d="M45.2453 8.8636L43.9826 8.79688L43.9155 10.0545L45.1782 10.1212L45.2453 8.8636Z" fill="#5C8001"/>
<path d="M51.5576 9.19734L50.2953 9.13062L50.2283 10.3882L51.4905 10.455L51.5576 9.19734Z" fill="#5C8001"/>
<path d="M45.0444 12.6366L43.7817 12.5698L43.7151 13.8275L44.9774 13.8942L45.0444 12.6366Z" fill="#5C8001"/>
<path d="M51.3566 12.97L50.0944 12.9033L50.0273 14.161L51.2896 14.2277L51.3566 12.97Z" fill="#5C8001"/>
<path d="M44.8432 16.4095L43.5809 16.3428L43.5139 17.6004L44.7762 17.6671L44.8432 16.4095Z" fill="#5C8001"/>
<path d="M51.1559 16.743L49.8932 16.6763L49.8262 17.9339L51.0889 18.0006L51.1559 16.743Z" fill="#5C8001"/>
<path d="M44.6425 20.1822L43.3798 20.1155L43.3127 21.3731L44.5754 21.4398L44.6425 20.1822Z" fill="#5C8001"/>
<path d="M50.9547 20.5159L49.692 20.4492L49.625 21.7068L50.8877 21.7735L50.9547 20.5159Z" fill="#5C8001"/>
<path d="M67.459 14.6537L69.6099 15.2087L69.9282 13.9896L67.5386 13.3734C67.6238 11.6636 67.3967 9.9525 66.8683 8.32354L68.8596 7.77362L68.5223 6.55769L66.3624 7.15422C65.507 5.45376 64.0017 4.16659 62.1851 3.58123L62.6689 1.71316L61.4452 1.39624L60.963 3.25117C59.0849 2.91472 57.1494 3.31568 55.5615 4.36994L53.9662 2.80754L53.0802 3.70659L54.5396 5.13572C54.1842 5.44105 53.8495 5.76947 53.5377 6.11878C52.3446 4.61802 50.608 3.64378 48.7009 3.40577L48.8034 1.48475L47.5407 1.41802L47.4391 3.32771C45.5252 3.34225 43.6973 4.12357 42.3678 5.49559L40.4935 4.28292L39.8042 5.33866L41.5353 6.46051C40.5362 7.85482 39.8001 9.41839 39.3626 11.075L36.9051 10.9452L36.8382 12.2028L39.0507 12.3197C38.7643 13.6475 38.5855 14.9961 38.5162 16.3524C38.4874 16.8932 38.4724 17.4305 38.4715 17.9643L36.5367 17.8621L36.4697 19.1197L38.4967 19.2268C38.566 21.8281 39.0304 24.4039 39.8742 26.8666L39.8552 26.8656C39.5067 26.8472 39.209 27.1138 39.1905 27.4611L38.9896 31.234C38.7907 35.0524 41.732 38.3108 45.5649 38.5179L54.4021 38.985C58.2352 39.1831 61.5061 36.2531 61.7141 32.4351L61.9105 28.7521C63.6424 26.5424 64.9924 24.0604 65.9048 21.4082L67.8685 21.9144L68.1868 20.6952L66.3135 20.2116C66.4722 19.7029 66.6214 19.1868 66.7559 18.6636C67.0979 17.3479 67.3332 16.0069 67.459 14.6537ZM39.7787 16.4192C40.1864 8.76461 43.2614 4.34474 48.0047 4.59545C50.0428 4.68841 51.9061 5.7699 52.9924 7.49048C54.4808 9.68288 55.1507 13.0477 54.9284 17.2199C54.902 17.7133 54.8644 18.203 54.8147 18.6888C54.7982 18.8532 54.774 19.0133 54.7546 19.1763C54.7174 19.4952 54.6815 19.8143 54.6344 20.1277C54.6067 20.3154 54.5695 20.5026 54.5379 20.6902C54.4899 20.9702 54.4445 21.2527 54.3896 21.5267C54.3502 21.7245 54.3053 21.9157 54.2594 22.1101C54.2024 22.3693 54.1466 22.6293 54.0817 22.8826C54.032 23.0792 53.9749 23.2698 53.9243 23.4625C53.8564 23.7055 53.7902 23.9492 53.7163 24.1855C53.6566 24.3772 53.5905 24.5623 53.5265 24.75C53.4512 24.9781 53.3755 25.2068 53.2891 25.4273C53.2199 25.6128 53.1433 25.7885 53.0702 25.9681C52.9833 26.1811 52.8964 26.3953 52.8039 26.601C52.7256 26.7753 52.6426 26.9425 52.5608 27.1109C52.4925 27.2502 52.4233 27.3878 52.3528 27.5237L41.2441 26.9365C40.0292 23.5698 39.5302 19.9882 39.7787 16.4192ZM60.4519 32.3684C60.2815 35.4921 57.6052 37.8893 54.4692 37.7274L45.6315 37.2603C42.4959 37.0907 40.0894 34.4248 40.252 31.3007L40.4195 28.1566L60.6192 29.2243L60.4519 32.3684ZM65.5282 18.3483L65.5278 18.3489C64.6854 21.8443 63.1169 25.1249 60.9236 27.9792L53.7375 27.5994C53.7626 27.5477 53.7838 27.4921 53.8093 27.4405C53.8811 27.2841 53.9528 27.1221 54.0246 26.9619C54.1271 26.7271 54.2287 26.4922 54.3252 26.2495C54.3935 26.0778 54.4575 25.9027 54.5228 25.7277C54.6123 25.484 54.6996 25.2383 54.7827 24.9848C54.8436 24.7988 54.9016 24.6177 54.9591 24.4316C55.0357 24.1765 55.1126 23.9189 55.1822 23.6577C55.2341 23.4675 55.2852 23.2778 55.3332 23.0849C55.4006 22.816 55.462 22.5431 55.5221 22.2688C55.5641 22.0762 55.606 21.8848 55.6462 21.6896C55.7029 21.4012 55.7526 21.1094 55.8015 20.815C55.8326 20.6274 55.8664 20.4401 55.8949 20.2524C55.8971 20.2159 55.9074 20.1806 55.9126 20.1436L57.9321 20.2503L57.9987 18.9965L56.064 18.8942C56.0661 18.8577 56.0679 18.8213 56.0744 18.785C56.1241 18.2895 56.1639 17.7903 56.1907 17.2866C56.2201 16.7371 56.2348 16.2024 56.2344 15.6828C56.2352 15.5076 56.2253 15.3425 56.2218 15.1708C56.2166 14.8325 56.2114 14.4923 56.1933 14.1673C56.1816 13.9686 56.1604 13.7815 56.1448 13.5884C56.134 13.4661 56.1258 13.342 56.1137 13.2216L58.3005 13.3372L58.3671 12.0796L55.9472 11.9517C55.9169 11.7684 55.8888 11.5835 55.8538 11.4057C55.8153 11.2145 55.7691 11.0266 55.7254 10.8383C55.6744 10.6099 55.6194 10.3806 55.5576 10.1616C55.504 9.97658 55.4456 9.80009 55.3876 9.62171C55.3193 9.41507 55.2519 9.20783 55.1766 9.00959C55.1105 8.83711 55.0374 8.67122 54.9652 8.50533C54.883 8.31682 54.8 8.12957 54.71 7.95015C54.6305 7.79146 54.5457 7.63944 54.4601 7.48733C54.4021 7.38653 54.3533 7.27742 54.2936 7.17964C54.3546 7.10468 54.416 7.03227 54.4769 6.96236C56.4173 4.77401 58.7636 3.95845 61.2666 4.60277C65.8642 5.79165 67.4573 10.9287 65.5282 18.3483Z" fill="#5C8001"/>
<path d="M56.1672 9.14108L57.391 9.45696L57.708 8.2378L56.4842 7.92188L56.1672 9.14108Z" fill="#5C8001"/>
<path d="M62.2866 10.7179L63.5104 11.0339L63.8274 9.81466L62.6036 9.49878L62.2866 10.7179Z" fill="#5C8001"/>
<path d="M61.3345 14.3785L62.5583 14.6938L62.8748 13.4745L61.651 13.1592L61.3345 14.3785Z" fill="#5C8001"/>
<path d="M60.3857 18.0355L61.61 18.3508L61.9265 17.1314L60.7023 16.8162L60.3857 18.0355Z" fill="#5C8001"/>
<path d="M59.4395 21.694L60.6637 22.0095L60.9802 20.7903L59.756 20.4749L59.4395 21.694Z" fill="#5C8001"/>
<path d="M59.1892 32.3016L57.9269 32.2349L57.8599 33.4925L59.1221 33.5592L59.1892 32.3016Z" fill="#5C8001"/>
<path d="M59.2895 30.4151L58.0272 30.3484L57.9602 31.606L59.2229 31.6727L59.2895 30.4151Z" fill="#5C8001"/>
<path d="M57.3959 30.315L56.1337 30.2483L56.0667 31.5059L57.3289 31.5726L57.3959 30.315Z" fill="#5C8001"/>
</svg>
